<mxfile host="app.diagrams.net" agent="Mozilla/5.0 (Windows NT 10.0; Win64; x64) AppleWebKit/537.36 (KHTML, like Gecko) Chrome/131.0.0.0 Safari/537.36" version="25.0.3">
  <diagram name="Страница — 1" id="nJIsXgGvaYXklZyJGCJD">
    <mxGraphModel grid="1" page="1" gridSize="10" guides="1" tooltips="1" connect="1" arrows="1" fold="1" pageScale="1" pageWidth="827" pageHeight="1169" math="0" shadow="0">
      <root>
        <mxCell id="0" />
        <mxCell id="1" parent="0" />
        <mxCell id="0h6jhx6NKwuLQA_fNWUP-51" value="" style="group" connectable="0" vertex="1" parent="1">
          <mxGeometry x="1150" y="356" width="41" height="10" as="geometry" />
        </mxCell>
        <mxCell id="0h6jhx6NKwuLQA_fNWUP-52" value="" style="ellipse;whiteSpace=wrap;html=1;aspect=fixed;" vertex="1" parent="0h6jhx6NKwuLQA_fNWUP-51">
          <mxGeometry width="10" height="10" as="geometry" />
        </mxCell>
        <mxCell id="0h6jhx6NKwuLQA_fNWUP-53" value="" style="endArrow=none;html=1;rounded=0;entryX=1;entryY=0.5;entryDx=0;entryDy=0;exitX=0.006;exitY=0.889;exitDx=0;exitDy=0;exitPerimeter=0;" edge="1" parent="0h6jhx6NKwuLQA_fNWUP-51" target="0h6jhx6NKwuLQA_fNWUP-52">
          <mxGeometry width="50" height="50" relative="1" as="geometry">
            <mxPoint x="41" y="5" as="sourcePoint" />
            <mxPoint x="30" y="75" as="targetPoint" />
          </mxGeometry>
        </mxCell>
        <mxCell id="0h6jhx6NKwuLQA_fNWUP-34" value="БД DigitalSolutions&lt;div&gt;&amp;lt;&amp;lt;datastore&amp;gt;&amp;gt;&lt;/div&gt;" style="html=1;dropTarget=0;whiteSpace=wrap;" vertex="1" parent="1">
          <mxGeometry x="1180" y="310" width="180" height="90" as="geometry" />
        </mxCell>
        <mxCell id="0h6jhx6NKwuLQA_fNWUP-35" value="" style="shape=module;jettyWidth=8;jettyHeight=4;" vertex="1" parent="0h6jhx6NKwuLQA_fNWUP-34">
          <mxGeometry x="1" width="20" height="20" relative="1" as="geometry">
            <mxPoint x="-27" y="7" as="offset" />
          </mxGeometry>
        </mxCell>
        <mxCell id="0h6jhx6NKwuLQA_fNWUP-1" value="Приложение DigitalSolutions&lt;div&gt;&amp;lt;&amp;lt;framework&amp;gt;&amp;gt;&lt;/div&gt;" style="html=1;dropTarget=0;whiteSpace=wrap;" vertex="1" parent="1">
          <mxGeometry x="40" y="40" width="180" height="90" as="geometry" />
        </mxCell>
        <mxCell id="0h6jhx6NKwuLQA_fNWUP-2" value="" style="shape=module;jettyWidth=8;jettyHeight=4;" vertex="1" parent="0h6jhx6NKwuLQA_fNWUP-1">
          <mxGeometry x="1" width="20" height="20" relative="1" as="geometry">
            <mxPoint x="-27" y="7" as="offset" />
          </mxGeometry>
        </mxCell>
        <mxCell id="0h6jhx6NKwuLQA_fNWUP-3" value="Управление проектами программных продуктов&lt;div&gt;&amp;lt;&amp;lt;application&amp;gt;&amp;gt;&lt;/div&gt;" style="html=1;dropTarget=0;whiteSpace=wrap;" vertex="1" parent="1">
          <mxGeometry x="220" y="160" width="180" height="90" as="geometry" />
        </mxCell>
        <mxCell id="0h6jhx6NKwuLQA_fNWUP-4" value="" style="shape=module;jettyWidth=8;jettyHeight=4;" vertex="1" parent="0h6jhx6NKwuLQA_fNWUP-3">
          <mxGeometry x="1" width="20" height="20" relative="1" as="geometry">
            <mxPoint x="-27" y="7" as="offset" />
          </mxGeometry>
        </mxCell>
        <mxCell id="0h6jhx6NKwuLQA_fNWUP-5" value="Управление задачами&lt;div&gt;&amp;lt;&amp;lt;application&amp;gt;&amp;gt;&lt;/div&gt;" style="html=1;dropTarget=0;whiteSpace=wrap;" vertex="1" parent="1">
          <mxGeometry x="220" y="280" width="180" height="90" as="geometry" />
        </mxCell>
        <mxCell id="0h6jhx6NKwuLQA_fNWUP-6" value="" style="shape=module;jettyWidth=8;jettyHeight=4;" vertex="1" parent="0h6jhx6NKwuLQA_fNWUP-5">
          <mxGeometry x="1" width="20" height="20" relative="1" as="geometry">
            <mxPoint x="-27" y="7" as="offset" />
          </mxGeometry>
        </mxCell>
        <mxCell id="0h6jhx6NKwuLQA_fNWUP-7" value="&lt;div&gt;Управление планами разработок программных продуктов&lt;div&gt;&amp;lt;&amp;lt;application&amp;gt;&amp;gt;&lt;/div&gt;&lt;/div&gt;" style="html=1;dropTarget=0;whiteSpace=wrap;" vertex="1" parent="1">
          <mxGeometry x="220" y="400" width="180" height="90" as="geometry" />
        </mxCell>
        <mxCell id="0h6jhx6NKwuLQA_fNWUP-8" value="" style="shape=module;jettyWidth=8;jettyHeight=4;" vertex="1" parent="0h6jhx6NKwuLQA_fNWUP-7">
          <mxGeometry x="1" width="20" height="20" relative="1" as="geometry">
            <mxPoint x="-27" y="7" as="offset" />
          </mxGeometry>
        </mxCell>
        <mxCell id="0h6jhx6NKwuLQA_fNWUP-9" value="Проект&lt;div&gt;&amp;lt;&amp;lt;component&amp;gt;&amp;gt;&lt;/div&gt;" style="html=1;dropTarget=0;whiteSpace=wrap;" vertex="1" parent="1">
          <mxGeometry x="590" y="160" width="180" height="90" as="geometry" />
        </mxCell>
        <mxCell id="0h6jhx6NKwuLQA_fNWUP-10" value="" style="shape=module;jettyWidth=8;jettyHeight=4;" vertex="1" parent="0h6jhx6NKwuLQA_fNWUP-9">
          <mxGeometry x="1" width="20" height="20" relative="1" as="geometry">
            <mxPoint x="-27" y="7" as="offset" />
          </mxGeometry>
        </mxCell>
        <mxCell id="0h6jhx6NKwuLQA_fNWUP-11" value="&lt;div&gt;Задача&lt;br&gt;&lt;div&gt;&amp;lt;&amp;lt;component&amp;gt;&amp;gt;&lt;/div&gt;&lt;/div&gt;" style="html=1;dropTarget=0;whiteSpace=wrap;" vertex="1" parent="1">
          <mxGeometry x="590" y="280" width="180" height="90" as="geometry" />
        </mxCell>
        <mxCell id="0h6jhx6NKwuLQA_fNWUP-12" value="" style="shape=module;jettyWidth=8;jettyHeight=4;" vertex="1" parent="0h6jhx6NKwuLQA_fNWUP-11">
          <mxGeometry x="1" width="20" height="20" relative="1" as="geometry">
            <mxPoint x="-27" y="7" as="offset" />
          </mxGeometry>
        </mxCell>
        <mxCell id="0h6jhx6NKwuLQA_fNWUP-13" value="План разработки&lt;div&gt;&amp;lt;&amp;lt;component&amp;gt;&amp;gt;&lt;/div&gt;" style="html=1;dropTarget=0;whiteSpace=wrap;" vertex="1" parent="1">
          <mxGeometry x="590" y="400" width="180" height="90" as="geometry" />
        </mxCell>
        <mxCell id="0h6jhx6NKwuLQA_fNWUP-14" value="" style="shape=module;jettyWidth=8;jettyHeight=4;" vertex="1" parent="0h6jhx6NKwuLQA_fNWUP-13">
          <mxGeometry x="1" width="20" height="20" relative="1" as="geometry">
            <mxPoint x="-27" y="7" as="offset" />
          </mxGeometry>
        </mxCell>
        <mxCell id="0h6jhx6NKwuLQA_fNWUP-17" value="" style="endArrow=open;endSize=12;dashed=1;html=1;rounded=0;entryX=-0.043;entryY=0.833;entryDx=0;entryDy=0;entryPerimeter=0;exitX=1.004;exitY=0.88;exitDx=0;exitDy=0;exitPerimeter=0;" edge="1" parent="1" source="0h6jhx6NKwuLQA_fNWUP-3">
          <mxGeometry width="160" relative="1" as="geometry">
            <mxPoint x="423" y="239" as="sourcePoint" />
            <mxPoint x="549.9900000000002" y="238.99" as="targetPoint" />
          </mxGeometry>
        </mxCell>
        <mxCell id="0h6jhx6NKwuLQA_fNWUP-19" value="" style="ellipse;whiteSpace=wrap;html=1;aspect=fixed;" vertex="1" parent="1">
          <mxGeometry x="550" y="234" width="10" height="10" as="geometry" />
        </mxCell>
        <mxCell id="0h6jhx6NKwuLQA_fNWUP-20" value="" style="endArrow=none;html=1;rounded=0;entryX=1;entryY=0.5;entryDx=0;entryDy=0;exitX=0.006;exitY=0.889;exitDx=0;exitDy=0;exitPerimeter=0;" edge="1" parent="1" target="0h6jhx6NKwuLQA_fNWUP-19">
          <mxGeometry width="50" height="50" relative="1" as="geometry">
            <mxPoint x="591.0799999999999" y="239.0100000000001" as="sourcePoint" />
            <mxPoint x="580" y="309" as="targetPoint" />
          </mxGeometry>
        </mxCell>
        <mxCell id="0h6jhx6NKwuLQA_fNWUP-21" value="" style="endArrow=open;endSize=12;dashed=1;html=1;rounded=0;exitX=1.004;exitY=0.871;exitDx=0;exitDy=0;exitPerimeter=0;" edge="1" parent="1" source="0h6jhx6NKwuLQA_fNWUP-5">
          <mxGeometry width="160" relative="1" as="geometry">
            <mxPoint x="421" y="359" as="sourcePoint" />
            <mxPoint x="551" y="359" as="targetPoint" />
          </mxGeometry>
        </mxCell>
        <mxCell id="0h6jhx6NKwuLQA_fNWUP-24" value="" style="endArrow=open;endSize=12;dashed=1;html=1;rounded=0;exitX=1.007;exitY=0.874;exitDx=0;exitDy=0;exitPerimeter=0;" edge="1" parent="1" source="0h6jhx6NKwuLQA_fNWUP-7">
          <mxGeometry width="160" relative="1" as="geometry">
            <mxPoint x="430" y="479" as="sourcePoint" />
            <mxPoint x="550" y="479" as="targetPoint" />
          </mxGeometry>
        </mxCell>
        <mxCell id="0h6jhx6NKwuLQA_fNWUP-25" value="" style="ellipse;whiteSpace=wrap;html=1;aspect=fixed;" vertex="1" parent="1">
          <mxGeometry x="550" y="474" width="10" height="10" as="geometry" />
        </mxCell>
        <mxCell id="0h6jhx6NKwuLQA_fNWUP-26" value="" style="endArrow=none;html=1;rounded=0;entryX=1;entryY=0.5;entryDx=0;entryDy=0;exitX=0.006;exitY=0.889;exitDx=0;exitDy=0;exitPerimeter=0;" edge="1" parent="1" target="0h6jhx6NKwuLQA_fNWUP-25">
          <mxGeometry width="50" height="50" relative="1" as="geometry">
            <mxPoint x="591" y="479" as="sourcePoint" />
            <mxPoint x="580" y="549" as="targetPoint" />
          </mxGeometry>
        </mxCell>
        <mxCell id="0h6jhx6NKwuLQA_fNWUP-27" value="IProject" style="text;strokeColor=none;fillColor=none;spacingLeft=4;spacingRight=4;overflow=hidden;rotatable=0;points=[[0,0.5],[1,0.5]];portConstraint=eastwest;fontSize=12;whiteSpace=wrap;html=1;" vertex="1" parent="1">
          <mxGeometry x="530" y="214" width="70" height="30" as="geometry" />
        </mxCell>
        <mxCell id="0h6jhx6NKwuLQA_fNWUP-28" value="&lt;span style=&quot;text-align: left;&quot;&gt;ITask&lt;/span&gt;" style="text;strokeColor=none;fillColor=none;spacingLeft=4;spacingRight=4;overflow=hidden;rotatable=0;points=[[0,0.5],[1,0.5]];portConstraint=eastwest;fontSize=12;whiteSpace=wrap;html=1;align=center;" vertex="1" parent="1">
          <mxGeometry x="510" y="324" width="80" height="30" as="geometry" />
        </mxCell>
        <mxCell id="0h6jhx6NKwuLQA_fNWUP-30" value="" style="endArrow=block;endFill=0;endSize=12;html=1;rounded=0;" edge="1" parent="1">
          <mxGeometry width="160" relative="1" as="geometry">
            <mxPoint x="120" y="440" as="sourcePoint" />
            <mxPoint x="120" y="130" as="targetPoint" />
          </mxGeometry>
        </mxCell>
        <mxCell id="0h6jhx6NKwuLQA_fNWUP-31" value="" style="endArrow=none;html=1;rounded=0;entryX=-0.006;entryY=0.433;entryDx=0;entryDy=0;entryPerimeter=0;" edge="1" parent="1" target="0h6jhx6NKwuLQA_fNWUP-7">
          <mxGeometry width="50" height="50" relative="1" as="geometry">
            <mxPoint x="120" y="440" as="sourcePoint" />
            <mxPoint x="100" y="490" as="targetPoint" />
          </mxGeometry>
        </mxCell>
        <mxCell id="0h6jhx6NKwuLQA_fNWUP-32" value="" style="endArrow=none;html=1;rounded=0;entryX=-0.006;entryY=0.433;entryDx=0;entryDy=0;entryPerimeter=0;" edge="1" parent="1">
          <mxGeometry width="50" height="50" relative="1" as="geometry">
            <mxPoint x="121" y="325" as="sourcePoint" />
            <mxPoint x="220" y="324" as="targetPoint" />
          </mxGeometry>
        </mxCell>
        <mxCell id="0h6jhx6NKwuLQA_fNWUP-33" value="" style="endArrow=none;html=1;rounded=0;entryX=-0.006;entryY=0.433;entryDx=0;entryDy=0;entryPerimeter=0;" edge="1" parent="1">
          <mxGeometry width="50" height="50" relative="1" as="geometry">
            <mxPoint x="120" y="205.5" as="sourcePoint" />
            <mxPoint x="219" y="204.5" as="targetPoint" />
          </mxGeometry>
        </mxCell>
        <mxCell id="0h6jhx6NKwuLQA_fNWUP-36" value="Хранилище&lt;div&gt;&amp;lt;&amp;lt;infrastructure&amp;gt;&amp;gt;&lt;/div&gt;" style="html=1;dropTarget=0;whiteSpace=wrap;" vertex="1" parent="1">
          <mxGeometry x="908" y="310" width="180" height="90" as="geometry" />
        </mxCell>
        <mxCell id="0h6jhx6NKwuLQA_fNWUP-37" value="" style="shape=module;jettyWidth=8;jettyHeight=4;" vertex="1" parent="0h6jhx6NKwuLQA_fNWUP-36">
          <mxGeometry x="1" width="20" height="20" relative="1" as="geometry">
            <mxPoint x="-27" y="7" as="offset" />
          </mxGeometry>
        </mxCell>
        <mxCell id="0h6jhx6NKwuLQA_fNWUP-40" value="" style="endArrow=none;html=1;rounded=0;entryX=1;entryY=0.5;entryDx=0;entryDy=0;" edge="1" parent="1" target="0h6jhx6NKwuLQA_fNWUP-9">
          <mxGeometry width="50" height="50" relative="1" as="geometry">
            <mxPoint x="790" y="205" as="sourcePoint" />
            <mxPoint x="710" y="580" as="targetPoint" />
          </mxGeometry>
        </mxCell>
        <mxCell id="0h6jhx6NKwuLQA_fNWUP-41" value="" style="endArrow=none;html=1;rounded=0;entryX=1;entryY=0.5;entryDx=0;entryDy=0;" edge="1" parent="1" target="0h6jhx6NKwuLQA_fNWUP-13">
          <mxGeometry width="50" height="50" relative="1" as="geometry">
            <mxPoint x="790" y="445" as="sourcePoint" />
            <mxPoint x="780" y="600" as="targetPoint" />
          </mxGeometry>
        </mxCell>
        <mxCell id="0h6jhx6NKwuLQA_fNWUP-42" value="" style="endArrow=none;html=1;rounded=0;exitX=1;exitY=0.5;exitDx=0;exitDy=0;" edge="1" parent="1" source="0h6jhx6NKwuLQA_fNWUP-11">
          <mxGeometry width="50" height="50" relative="1" as="geometry">
            <mxPoint x="800" y="400" as="sourcePoint" />
            <mxPoint x="790" y="325" as="targetPoint" />
          </mxGeometry>
        </mxCell>
        <mxCell id="0h6jhx6NKwuLQA_fNWUP-43" value="" style="endArrow=none;html=1;rounded=0;" edge="1" parent="1">
          <mxGeometry width="50" height="50" relative="1" as="geometry">
            <mxPoint x="790" y="445" as="sourcePoint" />
            <mxPoint x="790" y="205" as="targetPoint" />
          </mxGeometry>
        </mxCell>
        <mxCell id="0h6jhx6NKwuLQA_fNWUP-45" value="" style="rounded=0;orthogonalLoop=1;jettySize=auto;html=1;endArrow=halfCircle;endFill=0;endSize=6;strokeWidth=1;sketch=0;" edge="1" parent="1" target="0h6jhx6NKwuLQA_fNWUP-47">
          <mxGeometry relative="1" as="geometry">
            <mxPoint x="908" y="360" as="sourcePoint" />
          </mxGeometry>
        </mxCell>
        <mxCell id="0h6jhx6NKwuLQA_fNWUP-46" value="" style="rounded=0;orthogonalLoop=1;jettySize=auto;html=1;endArrow=oval;endFill=0;sketch=0;sourcePerimeterSpacing=0;targetPerimeterSpacing=0;endSize=10;" edge="1" parent="1" target="0h6jhx6NKwuLQA_fNWUP-47">
          <mxGeometry relative="1" as="geometry">
            <mxPoint x="790" y="360" as="sourcePoint" />
          </mxGeometry>
        </mxCell>
        <mxCell id="0h6jhx6NKwuLQA_fNWUP-47" value="" style="ellipse;whiteSpace=wrap;html=1;align=center;aspect=fixed;fillColor=none;strokeColor=none;resizable=0;perimeter=centerPerimeter;rotatable=0;allowArrows=0;points=[];outlineConnect=1;" vertex="1" parent="1">
          <mxGeometry x="875" y="355" width="10" height="10" as="geometry" />
        </mxCell>
        <mxCell id="0h6jhx6NKwuLQA_fNWUP-48" value="IDataStorage" style="text;html=1;align=center;verticalAlign=middle;resizable=0;points=[];autosize=1;strokeColor=none;fillColor=none;" vertex="1" parent="1">
          <mxGeometry x="818" y="328" width="90" height="30" as="geometry" />
        </mxCell>
        <mxCell id="0h6jhx6NKwuLQA_fNWUP-49" value="" style="endArrow=open;endSize=12;dashed=1;html=1;rounded=0;exitX=1.002;exitY=0.578;exitDx=0;exitDy=0;exitPerimeter=0;" edge="1" parent="1">
          <mxGeometry width="160" relative="1" as="geometry">
            <mxPoint x="1088.36" y="359.02" as="sourcePoint" />
            <mxPoint x="1150" y="360" as="targetPoint" />
          </mxGeometry>
        </mxCell>
        <mxCell id="0h6jhx6NKwuLQA_fNWUP-50" value="" style="group" connectable="0" vertex="1" parent="1">
          <mxGeometry x="550" y="354" width="41" height="10" as="geometry" />
        </mxCell>
        <mxCell id="0h6jhx6NKwuLQA_fNWUP-22" value="" style="ellipse;whiteSpace=wrap;html=1;aspect=fixed;" vertex="1" parent="0h6jhx6NKwuLQA_fNWUP-50">
          <mxGeometry width="10" height="10" as="geometry" />
        </mxCell>
        <mxCell id="0h6jhx6NKwuLQA_fNWUP-23" value="" style="endArrow=none;html=1;rounded=0;entryX=1;entryY=0.5;entryDx=0;entryDy=0;exitX=0.006;exitY=0.889;exitDx=0;exitDy=0;exitPerimeter=0;" edge="1" parent="0h6jhx6NKwuLQA_fNWUP-50" target="0h6jhx6NKwuLQA_fNWUP-22">
          <mxGeometry width="50" height="50" relative="1" as="geometry">
            <mxPoint x="41" y="5" as="sourcePoint" />
            <mxPoint x="30" y="75" as="targetPoint" />
          </mxGeometry>
        </mxCell>
        <mxCell id="0h6jhx6NKwuLQA_fNWUP-54" value="JDBC" style="text;html=1;align=center;verticalAlign=middle;resizable=0;points=[];autosize=1;strokeColor=none;fillColor=none;" vertex="1" parent="1">
          <mxGeometry x="1137" y="335" width="50" height="30" as="geometry" />
        </mxCell>
        <mxCell id="s8M-JxDAwtwROjCwPxa8-1" value="" style="group" connectable="0" vertex="1" parent="1">
          <mxGeometry x="550" y="304" width="41" height="10" as="geometry" />
        </mxCell>
        <mxCell id="s8M-JxDAwtwROjCwPxa8-2" value="" style="ellipse;whiteSpace=wrap;html=1;aspect=fixed;" vertex="1" parent="s8M-JxDAwtwROjCwPxa8-1">
          <mxGeometry width="10" height="10" as="geometry" />
        </mxCell>
        <mxCell id="s8M-JxDAwtwROjCwPxa8-3" value="" style="endArrow=none;html=1;rounded=0;entryX=1;entryY=0.5;entryDx=0;entryDy=0;exitX=0.006;exitY=0.889;exitDx=0;exitDy=0;exitPerimeter=0;" edge="1" parent="s8M-JxDAwtwROjCwPxa8-1" target="s8M-JxDAwtwROjCwPxa8-2">
          <mxGeometry width="50" height="50" relative="1" as="geometry">
            <mxPoint x="41" y="5" as="sourcePoint" />
            <mxPoint x="30" y="75" as="targetPoint" />
          </mxGeometry>
        </mxCell>
        <mxCell id="s8M-JxDAwtwROjCwPxa8-4" value="" style="group" connectable="0" vertex="1" parent="1">
          <mxGeometry x="550" y="185" width="41" height="10" as="geometry" />
        </mxCell>
        <mxCell id="s8M-JxDAwtwROjCwPxa8-5" value="" style="ellipse;whiteSpace=wrap;html=1;aspect=fixed;" vertex="1" parent="s8M-JxDAwtwROjCwPxa8-4">
          <mxGeometry width="10" height="10" as="geometry" />
        </mxCell>
        <mxCell id="s8M-JxDAwtwROjCwPxa8-6" value="" style="endArrow=none;html=1;rounded=0;entryX=1;entryY=0.5;entryDx=0;entryDy=0;exitX=0.006;exitY=0.889;exitDx=0;exitDy=0;exitPerimeter=0;" edge="1" parent="s8M-JxDAwtwROjCwPxa8-4" target="s8M-JxDAwtwROjCwPxa8-5">
          <mxGeometry width="50" height="50" relative="1" as="geometry">
            <mxPoint x="41" y="5" as="sourcePoint" />
            <mxPoint x="30" y="75" as="targetPoint" />
          </mxGeometry>
        </mxCell>
        <mxCell id="s8M-JxDAwtwROjCwPxa8-7" value="" style="group" connectable="0" vertex="1" parent="1">
          <mxGeometry x="550" y="425" width="41" height="10" as="geometry" />
        </mxCell>
        <mxCell id="s8M-JxDAwtwROjCwPxa8-8" value="" style="ellipse;whiteSpace=wrap;html=1;aspect=fixed;" vertex="1" parent="s8M-JxDAwtwROjCwPxa8-7">
          <mxGeometry width="10" height="10" as="geometry" />
        </mxCell>
        <mxCell id="s8M-JxDAwtwROjCwPxa8-9" value="" style="endArrow=none;html=1;rounded=0;entryX=1;entryY=0.5;entryDx=0;entryDy=0;exitX=0.006;exitY=0.889;exitDx=0;exitDy=0;exitPerimeter=0;" edge="1" parent="s8M-JxDAwtwROjCwPxa8-7" target="s8M-JxDAwtwROjCwPxa8-8">
          <mxGeometry width="50" height="50" relative="1" as="geometry">
            <mxPoint x="41" y="5" as="sourcePoint" />
            <mxPoint x="30" y="75" as="targetPoint" />
          </mxGeometry>
        </mxCell>
        <mxCell id="s8M-JxDAwtwROjCwPxa8-10" value="IXML" style="text;strokeColor=none;fillColor=none;spacingLeft=4;spacingRight=4;overflow=hidden;rotatable=0;points=[[0,0.5],[1,0.5]];portConstraint=eastwest;fontSize=12;whiteSpace=wrap;html=1;" vertex="1" parent="1">
          <mxGeometry x="530" y="160" width="70" height="30" as="geometry" />
        </mxCell>
        <mxCell id="s8M-JxDAwtwROjCwPxa8-11" value="IXML" style="text;strokeColor=none;fillColor=none;spacingLeft=4;spacingRight=4;overflow=hidden;rotatable=0;points=[[0,0.5],[1,0.5]];portConstraint=eastwest;fontSize=12;whiteSpace=wrap;html=1;" vertex="1" parent="1">
          <mxGeometry x="530" y="280" width="70" height="30" as="geometry" />
        </mxCell>
        <mxCell id="s8M-JxDAwtwROjCwPxa8-12" value="IXML" style="text;strokeColor=none;fillColor=none;spacingLeft=4;spacingRight=4;overflow=hidden;rotatable=0;points=[[0,0.5],[1,0.5]];portConstraint=eastwest;fontSize=12;whiteSpace=wrap;html=1;" vertex="1" parent="1">
          <mxGeometry x="530" y="400" width="70" height="30" as="geometry" />
        </mxCell>
        <mxCell id="s8M-JxDAwtwROjCwPxa8-13" value="Безопасность&lt;br&gt;&lt;div&gt;&amp;lt;&amp;lt;infrastructure&amp;gt;&amp;gt;&lt;/div&gt;" style="html=1;dropTarget=0;whiteSpace=wrap;" vertex="1" parent="1">
          <mxGeometry x="908" y="414" width="180" height="90" as="geometry" />
        </mxCell>
        <mxCell id="s8M-JxDAwtwROjCwPxa8-14" value="" style="shape=module;jettyWidth=8;jettyHeight=4;" vertex="1" parent="s8M-JxDAwtwROjCwPxa8-13">
          <mxGeometry x="1" width="20" height="20" relative="1" as="geometry">
            <mxPoint x="-27" y="7" as="offset" />
          </mxGeometry>
        </mxCell>
        <mxCell id="s8M-JxDAwtwROjCwPxa8-15" value="" style="rounded=0;orthogonalLoop=1;jettySize=auto;html=1;endArrow=oval;endFill=0;sketch=0;sourcePerimeterSpacing=0;targetPerimeterSpacing=0;endSize=10;" edge="1" parent="1">
          <mxGeometry relative="1" as="geometry">
            <mxPoint x="785" y="444.65999999999997" as="sourcePoint" />
            <mxPoint x="875" y="444.65999999999997" as="targetPoint" />
          </mxGeometry>
        </mxCell>
        <mxCell id="s8M-JxDAwtwROjCwPxa8-16" value="" style="rounded=0;orthogonalLoop=1;jettySize=auto;html=1;endArrow=halfCircle;endFill=0;endSize=6;strokeWidth=1;sketch=0;exitX=-0.001;exitY=0.341;exitDx=0;exitDy=0;exitPerimeter=0;" edge="1" parent="1" source="s8M-JxDAwtwROjCwPxa8-13">
          <mxGeometry relative="1" as="geometry">
            <mxPoint x="903" y="444.9" as="sourcePoint" />
            <mxPoint x="875" y="444.9" as="targetPoint" />
          </mxGeometry>
        </mxCell>
        <mxCell id="s8M-JxDAwtwROjCwPxa8-17" value="IAccessControl" style="text;html=1;align=center;verticalAlign=middle;resizable=0;points=[];autosize=1;strokeColor=none;fillColor=none;" vertex="1" parent="1">
          <mxGeometry x="813" y="414" width="100" height="30" as="geometry" />
        </mxCell>
        <mxCell id="s8M-JxDAwtwROjCwPxa8-18" value="" style="group" connectable="0" vertex="1" parent="1">
          <mxGeometry x="868" y="475" width="41" height="10" as="geometry" />
        </mxCell>
        <mxCell id="s8M-JxDAwtwROjCwPxa8-19" value="" style="ellipse;whiteSpace=wrap;html=1;aspect=fixed;" vertex="1" parent="s8M-JxDAwtwROjCwPxa8-18">
          <mxGeometry width="10" height="10" as="geometry" />
        </mxCell>
        <mxCell id="s8M-JxDAwtwROjCwPxa8-20" value="" style="endArrow=none;html=1;rounded=0;entryX=1;entryY=0.5;entryDx=0;entryDy=0;exitX=0.006;exitY=0.889;exitDx=0;exitDy=0;exitPerimeter=0;" edge="1" parent="s8M-JxDAwtwROjCwPxa8-18" target="s8M-JxDAwtwROjCwPxa8-19">
          <mxGeometry width="50" height="50" relative="1" as="geometry">
            <mxPoint x="41" y="5" as="sourcePoint" />
            <mxPoint x="30" y="75" as="targetPoint" />
          </mxGeometry>
        </mxCell>
        <mxCell id="s8M-JxDAwtwROjCwPxa8-21" value="IEncryption" style="text;html=1;align=center;verticalAlign=middle;resizable=0;points=[];autosize=1;strokeColor=none;fillColor=none;" vertex="1" parent="1">
          <mxGeometry x="824" y="454" width="80" height="30" as="geometry" />
        </mxCell>
        <mxCell id="OGSv38I5ttaZ8CZpfEfk-1" value="IDevPlan" style="text;html=1;align=center;verticalAlign=middle;resizable=0;points=[];autosize=1;strokeColor=none;fillColor=none;" vertex="1" parent="1">
          <mxGeometry x="515" y="448" width="70" height="30" as="geometry" />
        </mxCell>
      </root>
    </mxGraphModel>
  </diagram>
</mxfile>
